<svg width="72" height="42" viewBox="0 0 72 42" fill="none" xmlns="http://www.w3.org/2000/svg">
<g clip-path="url(#clip0_632_8272)">
<path d="M71.8779 32.8389C71.8782 33.036 71.8196 33.2288 71.7096 33.3928C71.5997 33.5568 71.4433 33.6846 71.2602 33.7602C71.0772 33.8357 70.8757 33.8555 70.6814 33.8171C70.487 33.7787 70.3084 33.6838 70.1683 33.5444C70.0282 33.405 69.9328 33.2274 69.8942 33.0341C69.8556 32.8407 69.8755 32.6403 69.9514 32.4582C70.0274 32.2761 70.1559 32.1206 70.3208 32.0112C70.4857 31.9018 70.6794 31.8435 70.8776 31.8438C71.1428 31.844 71.3971 31.949 71.5846 32.1355C71.7721 32.3221 71.8776 32.575 71.8779 32.8389Z" fill="#FBFBFB"/>
<path d="M71.9998 35.4451C71.9998 36.0977 71.7072 37.4587 70.0822 37.9786C70.8907 35.9248 69.8579 36.2929 69.7614 35.3491C69.6941 34.7021 70.0833 34.2168 70.7651 34.2168C71.447 34.2168 71.9998 34.9241 71.9998 35.4451Z" fill="#FBFBFB"/>
<path d="M16.9961 33.6566V31.8438H20.1923C21.7107 31.8438 22.4703 32.5994 22.4711 34.1106C22.4711 35.1258 22.129 35.7997 21.4449 36.1321L23.0408 38.1915H20.753L18.8151 35.4706V38.1915H16.9961V34.5636H20.1923C20.4965 34.5636 20.6483 34.4126 20.6476 34.1106C20.6468 33.8087 20.4951 33.6573 20.1923 33.6566H16.9961Z" fill="#FBFBFB"/>
<path d="M26.8176 38.1918C26.0792 38.192 25.3635 37.9375 24.7926 37.4717C24.2217 37.0058 23.8308 36.3575 23.6865 35.6371C23.5422 34.9167 23.6536 34.1688 24.0015 33.5209C24.3494 32.8729 24.9124 32.3651 25.5945 32.0838C26.2767 31.8025 27.0358 31.7652 27.7424 31.9783C28.4491 32.1913 29.0597 32.6416 29.47 33.2522C29.8804 33.8629 30.0653 34.5962 29.993 35.3273C29.9208 36.0583 29.596 36.7418 29.074 37.2614C28.7818 37.5616 28.4308 37.7991 28.0427 37.9591C27.6546 38.1191 27.2377 38.1983 26.8176 38.1918ZM27.7843 35.9784C28.0071 35.756 28.1455 35.4636 28.176 35.1511C28.2064 34.8385 28.127 34.5252 27.9513 34.2643C27.7756 34.0035 27.5144 33.8113 27.2122 33.7205C26.91 33.6297 26.5856 33.6459 26.2941 33.7663C26.0025 33.8867 25.762 34.104 25.6134 34.381C25.4648 34.658 25.4173 34.9777 25.4791 35.2857C25.5408 35.5936 25.7079 35.8708 25.952 36.0699C26.1961 36.269 26.502 36.3778 26.8176 36.3778C26.9977 36.3806 27.1764 36.3466 27.3426 36.2779C27.5089 36.2092 27.6592 36.1073 27.7843 35.9784Z" fill="#FBFBFB"/>
<path d="M35.3467 35.0176H37.1702V38.1915H33.9852C32.1617 38.1915 31.25 37.1335 31.25 35.0176C31.25 32.9017 32.1617 31.8438 33.9852 31.8438H37.1758L36.264 33.6566H33.9852C33.3774 33.6566 33.0735 34.1103 33.0735 35.0176C33.0735 35.925 33.3774 36.3772 33.9852 36.3742H35.3523L35.3467 35.0176Z" fill="#FBFBFB"/>
<path d="M38.6797 33.6566V31.8438H41.8702C43.3887 31.8438 44.1483 32.5994 44.1491 34.1106C44.1491 35.1258 43.807 35.7997 43.1229 36.1321L44.7187 38.1915H42.4399L40.5032 35.4706V38.1915H38.6797V34.5636H41.8702C42.1745 34.5636 42.3263 34.4126 42.3256 34.1106C42.3248 33.8087 42.173 33.6573 41.8702 33.6566H38.6797Z" fill="#FBFBFB"/>
<path d="M47.7716 31.8438H49.5951L51.8739 38.1915H49.936L48.6788 34.6774L47.425 38.1915H45.4883L47.7716 31.8438Z" fill="#FBFBFB"/>
<path d="M60.0702 31.8438V38.1915H58.2467V35.1671L57.3349 38.1915H55.5126L54.6008 35.1794V38.1915H52.7773V31.8438H55.0562L56.4243 35.4706L57.7914 31.8438H60.0702Z" fill="#FBFBFB"/>
<path d="M63.6583 35.9293C62.1398 35.9293 61.3802 35.2433 61.3795 33.8711C61.3795 32.5234 62.1391 31.8496 63.6583 31.8496H67.072L66.1614 33.6625H63.6538C63.3499 33.6625 63.1985 33.7327 63.1985 33.8711C63.1985 34.0354 63.3503 34.1172 63.6538 34.1165H65.022C66.5404 34.1165 67.3001 34.7903 67.3008 36.138C67.3008 37.5109 66.5412 38.1974 65.022 38.1974H61.375L62.2868 36.3834H65.022C65.3255 36.3834 65.4773 36.3016 65.4773 36.138C65.4773 35.9996 65.3259 35.9293 65.022 35.9293H63.6583Z" fill="#FBFBFB"/>
<path d="M27.2656 40.2206H27.7635V40.8554H28.3871V40.2206H28.885V42H28.3871V41.3641H27.7635V42H27.2656V40.2206Z" fill="#FBFBFB"/>
<path d="M36.301 42.0003C36.1856 42.0019 36.0711 41.9795 35.9649 41.9345C35.8587 41.8896 35.7631 41.8231 35.6842 41.7392C35.5209 41.5703 35.4297 41.345 35.4297 41.1106C35.4297 40.8762 35.5209 40.6509 35.6842 40.4819C35.764 40.3993 35.8598 40.3336 35.9658 40.2887C36.0718 40.2438 36.1858 40.2207 36.301 40.2207C36.4162 40.2207 36.5302 40.2438 36.6362 40.2887C36.7422 40.3336 36.838 40.3993 36.9178 40.4819C37.0819 40.6505 37.1737 40.8759 37.1737 41.1106C37.1737 41.3452 37.0819 41.5707 36.9178 41.7392C36.8389 41.8231 36.7434 41.8896 36.6371 41.9345C36.5309 41.9795 36.4164 42.0019 36.301 42.0003ZM36.5657 41.38C36.6355 41.3075 36.6745 41.211 36.6745 41.1106C36.6745 41.0102 36.6355 40.9136 36.5657 40.8412C36.5318 40.8053 36.4907 40.7769 36.4452 40.7577C36.3996 40.7385 36.3505 40.7289 36.301 40.7296C36.2517 40.7289 36.2028 40.7384 36.1574 40.7576C36.112 40.7768 36.0711 40.8053 36.0375 40.8412C35.9671 40.9134 35.9278 41.01 35.9278 41.1106C35.9278 41.2111 35.9671 41.3078 36.0375 41.38C36.0711 41.4159 36.112 41.4443 36.1574 41.4635C36.2028 41.4827 36.2517 41.4923 36.301 41.4915C36.3503 41.4921 36.3992 41.4824 36.4445 41.4632C36.4899 41.444 36.5308 41.4157 36.5646 41.38H36.5657Z" fill="#FBFBFB"/>
<path d="M43.7344 41.1093V40.2168H44.2334V41.1093C44.2334 41.3636 44.3164 41.4908 44.4824 41.4908C44.6484 41.4908 44.7314 41.3636 44.7314 41.1093V40.2168H45.2293V41.1093C45.2293 41.7043 44.9803 42.0018 44.4824 42.0018C43.9845 42.0018 43.7351 41.7043 43.7344 41.1093Z" fill="#FBFBFB"/>
<path d="M52.4076 41.3644C51.9926 41.3644 51.7852 41.1721 51.7852 40.7876C51.7852 40.4031 51.9926 40.2142 52.4076 40.2209H53.3418L53.0928 40.7296H52.4076C52.3246 40.7296 52.2831 40.7486 52.2831 40.7876C52.2831 40.8266 52.3246 40.8556 52.4076 40.8556H52.781C53.1975 40.8556 53.4053 41.0449 53.4045 41.4235C53.4045 41.8073 53.1971 42.0003 52.781 42.0003H51.7852L52.0341 41.4915H52.781C52.864 41.4915 52.9055 41.4681 52.9055 41.4235C52.9055 41.3789 52.864 41.3644 52.781 41.3644H52.4076Z" fill="#FBFBFB"/>
<path d="M61.3157 40.2207L61.0668 40.7294H59.9453V40.2207H61.3157ZM61.3157 40.8555L61.0668 41.3642H59.9453V40.8555H61.3157ZM61.3157 41.4914L61.0668 42.0001H59.9453V41.4914H61.3157Z" fill="#FBFBFB"/>
<path d="M2.28886 41.9992C1.54122 41.9992 1.1674 41.6292 1.1674 40.8892V20.4738C1.1674 19.73 1.54122 19.36 2.28886 19.3637H30.6764C31.6222 19.3621 32.5657 19.2691 33.4935 19.086C34.4038 18.9145 35.2797 18.5956 36.0863 18.1422C36.8534 17.7117 37.5041 17.1027 37.9827 16.3672C38.4649 15.628 38.7064 14.7035 38.7072 13.5939C38.7079 12.4842 38.4664 11.5687 37.9827 10.8473C37.5056 10.1316 36.8529 9.54875 36.0863 9.15379C35.2738 8.73669 34.3978 8.45552 33.4935 8.32155C32.5617 8.17486 31.6198 8.10027 30.6764 8.09844H10.8265C9.45163 8.09844 8.11336 8.06125 6.81172 7.98688C5.51008 7.9125 4.35722 7.66298 3.35314 7.23831C2.35268 6.81676 1.50611 6.10037 0.927418 5.18561C0.314353 4.2433 0.0078125 2.88413 0.0078125 1.1081C0.0078125 0.368834 0.379397 -0.00117366 1.12255 -0.00191739H30.7941C33.19 -0.00460623 35.5835 0.144442 37.9603 0.444321C40.2839 0.741814 42.3661 1.36134 44.2068 2.30291C46.0322 3.23273 47.566 4.64314 48.641 6.38041C49.7558 8.15645 50.3132 10.5423 50.3132 13.5381C50.3132 16.0906 49.6814 18.2452 48.4179 20.0019C47.1492 21.7622 45.513 23.2288 43.6214 24.3014C41.6345 25.4307 39.4787 26.2363 37.2358 26.6876C35.0448 27.154 32.8115 27.3955 30.571 27.4083H12.6063V40.8892C12.6063 41.6284 12.2325 41.9985 11.4848 41.9992H2.28886Z" fill="#FBFBFB"/>
</g>
<defs>
<clipPath id="clip0_632_8272">
<rect width="72" height="42" fill="white"/>
</clipPath>
</defs>
</svg>
