<svg width="93" height="100" viewBox="0 0 93 100" fill="none" xmlns="http://www.w3.org/2000/svg">
<path fill-rule="evenodd" clip-rule="evenodd" d="M25.1355 0.967155C8.5333 4.08341 0.000114621 16.433 0.000114621 37.612C-0.057935 59.3103 21.9428 72.641 44.5821 64.6195L48.7618 63.1191C52.1868 66.697 52.7673 66.697 49.1102 68.8899C46.2077 70.6212 46.4978 72.4101 48.3554 73.1026C50.8515 74.026 66.0027 88.5108 68.0344 92.031C75.5228 105.015 94.2148 100.456 92.9377 90.2997C92.3572 85.6831 88.816 80.3162 84.6364 76.5075C79.9924 72.237 77.3803 68.7745 73.9553 62.3112C70.6465 56.021 67.6861 54.636 63.3905 57.2328C61.5329 58.3293 61.3586 58.387 60.3718 57.4637C58.34 55.6747 58.4561 54.4628 60.9523 50.7118C70.4724 36.1693 70.9947 23.4734 62.5775 13.3745C50.8515 -0.706389 40.8091 4.37195 47.6589 8.75779C64.3192 19.3761 63.4485 40.9591 45.6853 57.2328C35.8169 66.2931 15.9639 61.4455 10.8555 48.7497C2.78661 28.5518 16.0798 1.89049 37.6162 6.16091C45.0465 8.06529 48.0071 -3.30327 25.1355 0.967155ZM22.8135 15.3366C20.3174 17.4141 21.9428 19.203 26.5868 16.029C29.8375 13.8361 31.4051 13.4322 34.3656 14.1247C38.255 14.9903 40.6348 14.0093 39.4158 12.0472C39.0094 11.3547 30.4761 8.93093 22.8135 15.3366ZM46.0915 14.5863C42.9568 14.4132 42.1441 16.1445 44.2919 18.3951C46.9622 21.2228 52.3029 21.6845 52.0127 19.0876C51.8385 17.2986 48.4715 14.7017 46.0915 14.5863ZM66.2929 62.946C66.7573 64.8504 71.3432 71.5445 73.7813 74.026C76.7418 76.9691 78.0189 78.9312 81.8501 83.0862C89.6288 91.5693 80.3407 99.9948 73.0265 89.3764C63.7966 75.9881 55.2052 71.7754 55.3213 70.2172C55.4955 68.2551 65.8866 61.3302 66.2929 62.946Z" fill="#FEAC25"/>
</svg>
